<svg width="448" height="12" viewBox="0 0 448 12" fill="none" xmlns="http://www.w3.org/2000/svg">
<mask id="mask0_2210_3857" style="mask-type:alpha" maskUnits="userSpaceOnUse" x="0" y="0" width="448" height="12">
<rect width="448" height="12" transform="matrix(-1 0 0 1 448 0)" fill="#C4C4C4"/>
</mask>
<g mask="url(#mask0_2210_3857)">
<path d="M380.713 -2.53772L379.618 -2.69589L381.749 -2.92267L380.728 -3.08867C379.703 -3.08715 378.376 -2.83842 377.654 -2.97059C377.566 -3.09855 378.681 -3.13961 378.966 -3.24157C379.218 -3.34607 379.423 -3.44988 379.58 -3.55178C379.022 -3.55068 378.409 -3.52603 377.777 -3.47929C376.926 -3.40294 376.092 -3.36583 375.367 -3.37204C373.882 -3.35142 372.448 -3.372 370.835 -3.36746L371.372 -3.67543L369.292 -3.60338C369.072 -3.57992 368.809 -3.61765 368.592 -3.58862C366.79 -3.34305 366.028 -3.47687 365.162 -3.58783C364.985 -3.61654 364.771 -3.63798 364.527 -3.65158C362.123 -3.59275 359.955 -3.24853 357.789 -3.07182C357.382 -3.02671 356.991 -2.96879 356.645 -2.90219C355.891 -2.77271 355.054 -2.667 354.208 -2.59472C353.362 -2.52244 352.536 -2.48592 351.804 -2.48847C350.185 -2.49133 348.356 -2.40569 346.494 -2.23983C345.94 -2.1852 345.386 -2.14917 344.867 -2.13402C344.348 -2.11886 343.875 -2.12492 343.479 -2.15183L342.22 -1.97603C341.674 -2.04736 340.982 -2.0865 340.186 -2.09107C339.39 -2.09563 338.506 -2.06553 337.588 -2.00259C336.61 -1.93431 335.616 -1.88828 334.601 -1.81609C332.505 -1.67808 330.465 -1.59368 328.544 -1.5655C325.684 -1.48201 322.889 -1.41746 320.003 -1.31336C318.198 -1.26312 316.439 -1.23548 314.737 -1.2306C312.698 -1.21095 310.493 -1.11581 308.227 -0.949775C308.334 -0.793996 309.328 -0.840018 309.995 -0.845291C312.146 -0.871182 314.347 -0.938276 316.56 -0.988678C317.557 -1.00835 318.526 -1.0158 319.463 -1.01098C321.028 -1.01744 322.678 -1.05894 324.385 -1.13479C327.081 -1.21825 329.692 -1.25837 332.189 -1.25474C332.385 -1.24857 332.564 -1.23764 332.724 -1.22212C332.757 -1.20868 332.764 -1.19174 332.743 -1.17291C332.722 -1.15408 332.675 -1.134 332.605 -1.11459C332.535 -1.09519 332.446 -1.07711 332.345 -1.06207C332.244 -1.04704 332.135 -1.03555 332.029 -1.02873C331.037 -0.923158 329.972 -0.80977 329.037 -0.793818C329.001 -0.792627 328.962 -0.789904 328.924 -0.785848C328.886 -0.78179 328.849 -0.776499 328.816 -0.770358C326.722 -0.547485 325.001 -0.585202 323.369 -0.548941C320.661 -0.450941 318.051 -0.405164 315.577 -0.412304C315.203 -0.411819 314.8 -0.39908 314.381 -0.374547C311.79 -0.275098 309.368 -0.263975 307.227 -0.34168C306.346 -0.361368 305.527 -0.405561 304.58 -0.406301C303.997 -0.409344 303.489 -0.437545 303.087 -0.489221C302.686 -0.540895 302.399 -0.614974 302.243 -0.707003C301.843 -0.658551 301.438 -0.61537 301.031 -0.577977C300.788 -0.556596 300.554 -0.550916 300.378 -0.562104C300.202 -0.573293 300.096 -0.600513 300.082 -0.638258C300.009 -0.743965 300.564 -0.797051 301.046 -0.842318C300.755 -0.864988 300.428 -0.878325 300.072 -0.882007C298.066 -0.90616 295.914 -0.877652 293.663 -0.797108C291.916 -0.700699 290.521 -0.77917 288.683 -0.643213C288.462 -0.619753 288.281 -0.654186 288.078 -0.662455C287.549 -0.705992 286.89 -0.715779 286.158 -0.690956C285.426 -0.666134 284.644 -0.607453 283.878 -0.52C282.925 -0.758922 280.865 -0.485976 279.344 -0.461445C278.876 -0.339942 279.413 -0.361302 279.436 -0.327921C279.459 -0.29454 279.436 -0.327929 279.62 -0.347478C281.139 -0.175409 283.219 -0.137888 285.569 -0.240191C286.004 -0.239766 286.418 -0.231928 286.808 -0.216749C287.398 -0.195268 288.064 -0.197412 288.775 -0.223091C289.553 -0.24195 290.267 -0.232993 290.883 -0.196653C291.238 -0.197245 291.538 -0.179041 291.755 -0.143714C291.973 -0.108387 292.101 -0.0570847 292.127 0.00542429C291.89 0.0536127 291.627 0.0977067 291.349 0.135955C289.897 0.286973 288.449 0.349483 287.29 0.311186C285.273 0.245201 282.873 0.309593 280.728 0.287066C279.278 0.27794 277.735 0.303934 276.128 0.364563C276.128 0.364563 276.171 0.425761 276.174 0.431325C275.984 0.457822 275.785 0.479082 275.587 0.493887C275.587 0.493887 275.587 0.493887 275.567 0.466069C275.655 0.439355 275.775 0.414226 275.912 0.393586L276.389 0.342754C276.065 0.329527 275.761 0.290142 275.423 0.314205C274.71 0.358911 274.029 0.377784 273.42 0.369705C272.812 0.361624 272.288 0.326751 271.881 0.26718C271.16 0.190835 270.263 0.156114 269.248 0.165264C268.47 0.156929 267.72 0.139015 267.003 0.111611C267.003 0.111611 266.957 0.0448536 266.617 0.00937099C266.939 -0.0343916 267.274 -0.0701259 267.608 -0.0961959C269.062 -0.161324 270.519 -0.220889 271.948 -0.265418C272.474 -0.270227 272.968 -0.262767 273.422 -0.243182C274.679 -0.220261 276.091 -0.252791 277.575 -0.338872C277.575 -0.338872 277.869 -0.370151 278.016 -0.385791C277.599 -0.532545 276.163 -0.385626 275.582 -0.485012C275.228 -0.483203 274.606 -0.470705 274.627 -0.496869C274.676 -0.531784 274.681 -0.56422 274.644 -0.591849C274.607 -0.619478 274.527 -0.641618 274.411 -0.656679C274.296 -0.671739 274.146 -0.679354 273.974 -0.678967C273.801 -0.678579 273.61 -0.6702 273.414 -0.654438C271.779 -0.569175 270.239 -0.545463 268.888 -0.584758C268.376 -0.583999 267.802 -0.558728 267.294 -0.552407C266.983 -0.544791 266.699 -0.549027 266.457 -0.564879C265.229 -0.681621 263.577 -0.690146 261.748 -0.589176C260.864 -0.552872 260.038 -0.548019 259.313 -0.574859C258.797 -0.579664 258.578 -0.496663 258.211 -0.457563L256.651 -0.375139L258.654 -0.27186C258.226 -0.0351756 257.886 0.0428683 257.186 0.0576142C256.165 0.0798802 255.172 0.0899403 254.21 0.0877315C253.499 0.0857857 252.912 0.0348139 251.949 0.125346C251.779 0.140114 251.615 0.144894 251.485 0.138884C250.358 0.05851 249 0.0400637 247.504 0.0848052C246.73 -0.065703 245.412 0.0806299 244.192 0.198535C243.798 0.0851628 244.511 0.0331197 244.937 -0.0360546C243.916 -0.0289742 242.888 -0.0330176 241.835 -0.0164626C241.518 -0.0224895 241.156 -0.0121801 240.777 0.013654C240.398 0.0394873 240.013 0.0801356 239.651 0.132426C239.474 0.166211 239.262 0.19164 239.057 0.203429C238.852 0.21522 238.671 0.212469 238.551 0.195749C238.004 0.146435 237.129 0.191855 236.677 0.108557C236.516 0.0893995 236.287 0.0867255 236.029 0.101002C235.772 0.115277 235.503 0.145579 235.271 0.186476C235.525 0.199236 235.751 0.219328 235.944 0.246313C236.635 0.333967 236.381 0.48043 235.503 0.693363C234.154 0.681653 232.776 0.684977 231.526 0.644847C230.829 0.608821 229.975 0.620083 229.061 0.677366C228.146 0.734651 227.206 0.835684 226.347 0.969107C226.037 1.02041 225.682 1.05594 225.355 1.06865C225.028 1.08136 224.751 1.07031 224.581 1.03769C224.475 0.99997 224.442 0.952227 224.485 0.898605L225.367 0.804767C225.367 0.804767 225.332 0.754695 225.324 0.743568L224.057 0.735156C223.386 0.734863 222.687 0.749613 222.053 0.74541C221.122 0.717467 220.059 0.733042 218.93 0.791172C217.888 0.850778 216.865 0.895831 215.868 0.925937C214.904 0.956926 214.205 0.858137 213.287 0.84236C212.593 0.83047 211.829 0.843177 211.025 0.87999C209.637 0.945277 208.363 0.9454 207.319 0.88034C206.102 1.23086 205.51 1.28786 204.38 1.19314L203.849 1.16608L203.704 1.24126L203.298 1.22473C202.539 1.21001 201.779 1.19529 200.987 1.19003C199.885 1.22256 198.696 1.31008 197.534 1.44404C197.314 1.4675 197.014 1.54721 196.82 1.60962C196.627 1.67202 196.205 1.86028 195.895 1.98284C196.232 2.0723 196.607 2.15785 196.875 2.2607C196.902 2.27827 196.899 2.29922 196.867 2.32187C196.835 2.34452 196.775 2.36824 196.691 2.39111C196.607 2.41398 196.502 2.43538 196.384 2.45357C196.266 2.47177 196.139 2.48627 196.012 2.49589C195.765 2.51663 195.521 2.53046 195.291 2.5368C194.156 2.54774 193.069 2.53961 192.041 2.51249C191.665 2.47422 191.151 2.47059 190.58 2.50216C190.009 2.53374 189.413 2.59872 188.888 2.6868C187.543 2.63392 185.979 2.64954 184.306 2.73258C182.536 2.68208 180.398 2.7842 178.745 2.67355C178.783 2.72919 178.612 2.82498 178.374 2.88017C177.998 2.96399 177.572 3.04168 177.113 3.10994L173.617 3.24321C173.486 3.31174 173.323 3.38111 173.129 3.45043C172.996 3.50518 172.765 3.55875 172.484 3.59979C172.203 3.64084 171.895 3.66613 171.624 3.67029C170.929 3.6906 170.345 3.64519 169.516 3.75738C170.793 3.86342 172.516 3.84934 174.378 3.71762C176.127 3.61745 177.809 3.56738 179.362 3.56929C179.874 3.56853 180.549 3.57438 180.709 3.63497C181.064 3.80624 181.991 3.77916 183.074 3.74757C183.924 3.71299 184.701 3.71687 185.34 3.7589C185.979 3.80092 186.462 3.87989 186.75 3.98931C186.823 4.09502 186.648 4.18524 185.902 4.24675L182.799 4.4934C182.342 4.46169 181.908 4.42415 181.499 4.38095C180.811 4.32356 179.961 4.3078 179.015 4.33491C178.069 4.36202 177.054 4.43127 176.047 4.53725C175.533 4.59199 175.019 4.64673 174.646 4.62072C174.319 4.59084 174.017 4.55507 173.744 4.51367C173.689 4.48592 173.667 4.45399 173.679 4.41909C173.481 4.43532 173.283 4.45641 173.091 4.48165C171.559 4.77609 170.372 4.771 169.294 4.69462C169.003 4.67192 168.781 4.63583 168.485 4.60757C168.19 4.5793 168.085 4.54262 167.817 4.5533C165.675 4.64986 165.058 4.32733 163.253 4.34029C163.165 4.32769 163.111 4.30885 163.095 4.28551C163.079 4.26218 163.102 4.2351 163.161 4.20676C163.289 4.18117 163.436 4.15917 163.59 4.14277C163.745 4.12637 163.9 4.11611 164.043 4.11292C164.874 4.07153 165.607 4.08422 166.118 4.14883C166.48 4.17522 166.864 4.19626 167.266 4.21182L169.073 3.74474C167.322 3.78756 165.666 3.78728 164.144 3.74391C163.811 3.71955 163.249 3.76151 162.781 3.76949L159.341 3.81315C158.634 3.81676 158.031 3.74355 157.045 3.91423C157.045 3.91423 156.393 3.94175 156.22 3.91844C156.046 3.89514 155.276 3.75019 154.816 3.65577C154.283 3.68269 153.544 3.75534 153.212 3.73098C152.631 3.67116 152.129 3.59447 151.713 3.50229L149.635 3.63388C149.638 3.75078 149.713 3.86076 149.862 3.96213C150.024 4.0599 150.018 4.17726 149.846 4.30462C149.673 4.43197 149.338 4.5657 148.869 4.69489L146.817 5.3791C146.482 5.42492 146.125 5.45575 145.794 5.46743C145.464 5.47911 145.176 5.47106 144.969 5.44437C144.086 5.36514 143.097 5.3032 142.214 5.22397C141.076 5.34519 141.368 5.54096 140.54 5.71269L137.859 5.99812C137.45 6.26262 137.033 6.516 138.277 6.60455C138.524 6.62003 138.357 6.72139 138.583 6.76304C137.616 6.96153 136.553 7.02095 135.573 7.14321C135.186 7.23114 134.863 7.32421 134.619 7.41794C134.35 7.55906 133.806 7.70322 133.104 7.81928C132.402 7.93534 131.598 8.01399 130.866 8.03825C129.638 8.11256 128.381 8.22416 127.151 8.36806C126.73 8.4181 126.298 8.45456 125.884 8.47498C125.469 8.49539 125.082 8.4993 124.748 8.48643C123.558 8.46377 122.55 8.38586 121.791 8.25776C121.04 8.14905 120.028 8.09666 118.846 8.10532C116.826 8.32038 116.418 8.64443 115.196 8.92984L117.308 8.96184C117.384 9.07311 117.245 9.21341 118.11 9.21084C118.976 9.20827 118.537 9.31474 118.256 9.42226C118.157 9.47634 117.964 9.53198 117.71 9.57974C117.455 9.6275 117.155 9.66446 116.86 9.68436L115.062 9.82198C114.424 9.87435 113.807 9.89671 113.278 9.88661C112.75 9.87651 112.33 9.83434 112.065 9.76473C111.76 9.69862 111.34 9.65391 110.83 9.63333C110.181 9.5794 109.646 9.4992 109.247 9.39576L106.709 9.54647C106.601 9.44252 106.252 9.36964 105.722 9.34014C105.191 9.31064 104.512 9.32632 103.798 9.38456L102.087 9.47706C100.185 9.57798 99.7677 9.54476 99.2107 9.2517L101.492 8.72823C101.16 8.59035 100.84 8.46916 100.52 8.34796C101.088 8.17551 101.846 8.01239 102.717 7.87518C103.53 7.72775 104.366 7.58496 105.222 7.44736C106.15 7.30675 107.131 7.18449 108.283 7.02599C108.484 6.97471 108.777 6.88388 109.15 6.79636C109.524 6.71131 109.914 6.62794 110.319 6.54658C110.242 6.43531 110.173 6.33517 110.32 6.206C109.61 6.24722 108.877 6.3193 108.186 6.41576C107.496 6.51221 106.869 6.63 106.364 6.75851C106.279 6.7813 106.175 6.8027 106.058 6.82128C105.942 6.83985 105.816 6.85517 105.689 6.86618C104.442 6.94514 103.846 7.11009 103.236 7.31235C102.826 7.41574 102.296 7.50756 101.722 7.57506C100.62 7.69236 99.5405 7.84305 98.4867 7.97313C98.1642 8.01648 97.829 8.05216 97.4949 8.07869C96.3933 8.16308 95.2846 8.28108 94.2253 8.4267C93.8796 8.4637 93.5478 8.51268 93.2577 8.56952C92.9676 8.62637 92.7277 8.68944 92.5579 8.75346C92.8202 8.8236 92.9618 8.91215 92.974 9.01374C93.0201 9.08051 92.2464 9.2166 91.8806 9.31525C91.5149 9.4139 92.2321 9.36742 92.4755 9.37734C93.4745 9.39642 93.6599 9.43641 93.0616 9.65536C92.8618 9.7242 92.7291 9.79309 92.672 9.85773C92.6148 9.92237 92.6342 9.9814 92.7292 10.0311C92.8712 10.237 93.3032 10.406 93.5998 10.6073C93.1392 10.74 92.3694 10.8816 92.2855 11.0458C92.2452 11.0822 92.16 11.1208 92.0361 11.1588C91.9123 11.1968 91.7529 11.2332 91.5694 11.2654C91.0858 11.3349 90.6461 11.418 90.2844 11.5082C89.9227 11.5985 89.6486 11.6936 89.4835 11.786C89.4295 11.8242 89.299 11.8647 89.1182 11.8995C88.9374 11.9343 88.7196 11.9606 88.5086 11.9733C88.2565 11.989 88.0307 11.9869 87.8779 11.9676C87.7251 11.9483 87.6572 11.9132 87.6879 11.8696C87.6817 11.7877 87.7151 11.7023 87.7877 11.6141C87.7455 11.5529 87.7033 11.4917 87.87 11.3904C87.117 11.4274 86.3265 11.5015 85.5843 11.6047C84.8421 11.7079 84.1766 11.8363 83.6602 11.9758C83.0894 12.1202 82.5629 12.2718 81.9301 12.4406C82.0606 12.6298 82.0606 12.6298 80.7139 12.9642L73.5708 13.1273L72.1068 13.3488C70.7416 13.5419 70.417 13.5287 69.5594 13.4289L68.9822 13.335C67.7699 13.4641 66.3739 13.6126 65.6157 13.3709C65.3694 13.5285 65.2088 13.5814 65.2647 13.6053C65.6266 13.8378 66.2555 14.0352 67.1265 14.1894C67.3486 14.2255 67.5049 14.2806 67.7637 14.3127C68.598 14.4943 68.7916 14.775 68.3046 15.0972C68.063 15.2398 67.7119 15.3858 67.2628 15.5306C67.9202 15.7314 68.7909 15.8979 69.8518 16.0254C70.7521 16.1241 71.4934 16.2562 72.0547 16.418C72.5586 16.5811 73.3131 16.7037 74.2752 16.7788C74.7632 16.8108 75.1193 16.8737 75.308 16.9615C75.3641 17.1991 75.2351 17.4536 74.9236 17.7191C74.8649 17.7999 74.6982 17.8872 74.4366 17.9741C74.175 18.061 73.8256 18.1451 73.4157 18.22C73.4157 18.22 73.2183 18.2768 73.1235 18.3108C73.0444 18.5985 73.3403 18.8521 73.9912 19.0545C74.0978 19.1119 74.3161 19.1534 74.6224 19.1745C74.9288 19.1955 75.3116 19.1954 75.7297 19.174C76.613 19.1397 77.4382 19.1355 78.2925 19.1163C79.213 19.089 80.0238 19.1105 80.6397 19.1784C81.2555 19.2463 81.6537 19.3582 81.7921 19.5022C81.8012 19.543 81.8281 19.582 81.8727 19.619C81.8987 19.6381 81.9128 19.6586 81.9149 19.6802L79.9531 20.1518L82.1725 20.3396C82.303 20.5287 81.2376 20.6421 80.7035 20.7826L81.0336 20.8609C81.4585 20.9053 82.0309 20.8205 82.549 20.7713L83.0634 20.7165L83.1248 20.8056C83.445 20.9268 84.6128 20.7905 85.0684 20.8794C85.524 20.9682 85.1988 21.0685 84.5162 21.1651C84.0416 21.2368 83.5321 21.2941 83.0258 21.3324C82.5195 21.3708 82.0297 21.3893 81.5932 21.3866C81.3326 21.3771 81.1164 21.3554 80.9578 21.3229C80.0365 21.1842 79.0188 21.0651 77.9122 20.9662C77.0637 20.8775 76.0013 20.8397 74.7995 20.8556C74.4468 20.8489 74.0215 20.8699 73.5983 20.915C73.175 20.96 72.781 21.0262 72.4852 21.1019L71.8629 21.1144C71.8629 21.1144 71.5224 21.1925 71.5706 21.2052C71.8075 21.4365 71.5322 21.7191 70.7858 22.0114L71.4349 22.0378C72.3627 22.0108 71.7744 22.1868 71.9131 22.2736C72.5721 22.2572 73.4285 22.184 73.741 22.294L74.2087 22.2861L74.0251 22.3056L73.803 22.2695L72.9306 22.434C73.344 22.4617 73.6434 22.4955 74.0085 22.5104C74.2102 22.5233 74.3708 22.5462 74.4805 22.5776C74.5903 22.6091 74.647 22.6484 74.6473 22.6932C74.6463 22.7623 74.755 22.8204 74.9632 22.862C75.1713 22.9036 75.472 22.9273 75.8365 22.931C76.2713 22.9324 76.5202 23.0075 76.7751 23.0341L75.6675 23.4864C75.6675 23.4864 76.2185 23.4278 75.9186 23.5075L75.8802 23.4518L75.2091 23.5651C74.7254 23.6643 74.3872 23.6884 74.1016 23.6173C73.8159 23.5461 73.8811 23.6407 73.744 23.6135C73.7939 23.6858 74.1048 23.7364 74.3712 23.7797C74.6793 23.8137 75.027 23.8387 75.4086 23.8544C74.7209 24.1724 74.688 24.1819 75.6925 24.2661C76.6969 24.3503 76.3504 24.4767 77.1909 24.4948C78.0314 24.5128 77.0757 24.728 76.5131 24.77C76.0961 24.7975 75.6709 24.8405 75.2666 24.8959C74.8624 24.9513 74.4887 25.0178 74.1713 25.0909L74.3402 25.3357C74.5876 25.3154 74.8354 25.289 75.0749 25.2575C75.8892 25.123 76.6299 24.9964 77.3542 25.0746L77.0093 25.2606L79.5375 25.1527C79.472 25.2921 79.0867 25.4509 78.4627 25.5956C78.5567 25.6751 78.6144 25.7587 78.6353 25.846C78.6775 25.9072 78.9271 25.8687 79.0894 25.8753C79.6684 25.8855 80.1435 25.927 80.4731 25.996C80.8026 26.0651 80.9765 26.1596 80.9793 26.2713C81.0445 26.3659 80.1545 26.5621 79.598 26.5557C78.2085 26.5745 76.7059 26.6473 75.1716 26.77C74.2362 26.786 74.1041 26.5373 72.5651 26.707C72.5345 26.8219 72.7316 26.9149 73.1267 26.9719C73.5217 27.029 74.0932 27.0471 74.7548 27.0234C74.3787 27.2784 72.2952 27.3449 72.203 27.6115C72.7218 27.5927 73.2766 27.5484 73.8125 27.483C74.3483 27.4175 74.8466 27.3333 75.2581 27.2386C75.3469 27.2152 75.4585 27.1937 75.5824 27.176C75.7062 27.1583 75.8386 27.1449 75.9669 27.1372C76.0953 27.1295 76.2157 27.1277 76.3168 27.1319C76.418 27.1361 76.4967 27.1462 76.5456 27.1612C76.2572 27.2576 75.9397 27.3691 75.5777 27.4733C75.2159 27.5775 75.1287 27.6226 74.8677 27.6444C72.9207 27.8516 71.995 28.2249 70.3106 28.4698C69.8698 28.5168 69.815 28.6659 70.1977 28.6491C70.5617 28.6322 70.8913 28.6344 71.1496 28.6554C71.4078 28.6765 71.5846 28.7155 71.66 28.7681C71.9425 28.8296 72.2943 28.8784 72.7066 28.9135C70.9791 29.2965 68.9194 29.635 66.7208 29.897C66.3044 29.9488 65.8701 29.9804 65.4816 29.9871C64.2543 29.9875 62.952 30.0179 61.6008 30.0777C61.1216 30.094 60.6788 30.0925 60.2964 30.0732C59.0425 30.0275 58.0467 30.1275 57.1371 30.4095L55.6314 30.8564C55.6813 30.9287 55.934 31.0093 56.1286 31.12L54.9525 31.3586L45.9772 30.809L44.1754 31.3411L41.5918 31.3116C41.3938 31.3269 41.1948 31.3481 41.0041 31.3741C40.4816 31.5313 40.073 31.6822 39.506 31.8322C38.939 31.9821 37.9264 32.0003 37.2202 32.177C36.514 32.3537 35.8066 32.3573 34.9326 32.4623C34.8505 32.599 34.9354 32.7221 35.182 32.8239C35.2626 32.9407 35.7067 33.0129 35.7835 33.1242C35.775 33.2366 35.94 33.3321 36.2636 33.4019C36.5872 33.4718 37.0592 33.5138 37.6366 33.5241C39.2536 33.7636 41.2036 33.9341 43.4275 34.0305C43.6229 34.0375 43.7848 34.0537 43.9034 34.078C44.0219 34.1024 44.0945 34.1344 44.1167 34.1721C44.1136 34.2813 44.2619 34.3756 44.5507 34.4482C44.8396 34.5208 45.2617 34.5698 45.7861 34.5916C45.9258 34.596 46.0312 34.6097 46.0892 34.631C46.2881 34.6448 46.4331 34.6711 46.51 34.7074C46.5869 34.7437 46.5931 34.7888 46.5281 34.8384C46.4632 34.8879 46.3292 34.9402 46.1392 34.9902C45.9492 35.0402 45.7094 35.0862 45.4432 35.1238C45.0571 35.1843 44.6628 35.2422 44.2617 35.2973C44.2847 35.3307 44.6827 35.3361 44.6246 35.3662C44.4675 35.4622 44.4311 35.5521 44.5182 35.6289C44.6054 35.7056 44.8137 35.7671 45.1268 35.8084L42.9817 36.5861C41.6797 36.6939 40.4025 36.8766 39.3925 37.0995C39.3912 37.1361 39.4493 37.1667 39.5611 37.1883C39.6729 37.21 39.8345 37.2219 40.0296 37.2228C40.5532 37.2388 41.0478 37.2697 41.612 37.2873C41.9568 37.3005 42.2438 37.3294 42.4562 37.3724C42.6686 37.4154 42.8023 37.4716 42.8494 37.5378L41.5899 37.8271C41.9934 37.8977 42.2928 37.9315 42.5593 37.9748C42.4083 38.0657 42.1486 38.1598 41.8003 38.2496C41.452 38.3395 41.0245 38.4228 40.5507 38.4931C40.4237 38.5076 40.2942 38.5182 40.1697 38.5243C40.0452 38.5304 39.9282 38.5318 39.8259 38.5285C38.8505 38.4293 37.7095 38.6044 36.6014 38.7702C35.4933 38.9359 34.8917 39.0357 34.0736 39.1646L32.5083 39.1819C32.1121 39.2429 31.7586 39.3147 31.476 39.3914C31.1934 39.4682 30.9896 39.5478 30.8809 39.6239C30.9653 39.7463 31.7077 39.6792 32.1502 39.6918C33.1999 39.768 34.58 39.7518 36.0617 39.6458C36.429 39.6067 36.8057 39.6382 37.1632 39.642C37.9343 39.6572 38.6755 39.682 39.3831 39.7162C39.8492 39.7481 40.2847 39.7875 40.6869 39.8343C40.7944 39.99 39.1029 40.1104 40.0629 40.1873C39.7323 40.2225 39.6084 40.2715 39.4384 40.2538C38.3494 40.355 37.2764 40.405 36.3439 40.398C34.5543 40.3766 32.5222 40.4475 30.4141 40.6052C28.1385 40.7685 25.9557 40.8371 24.0457 40.8053C23.3182 40.8034 22.505 40.8368 21.6683 40.903C20.6801 40.9947 19.6988 41.0524 18.7881 41.0722C18.4865 41.0729 18.1506 41.0885 17.8075 41.1178C17.4645 41.147 17.1242 41.1891 16.8142 41.2405C16.841 41.2795 17.1365 41.3077 17.0707 41.3267C16.1282 41.6181 15.746 41.9216 14.2951 42.2193C13.3033 42.3249 12.1645 42.4461 11.5159 42.3061C10.8673 42.1661 11.0997 42.0458 12.3905 41.6875C12.1103 41.6823 11.773 41.6991 11.4373 41.7348C11.1016 41.7705 10.7889 41.823 10.5537 41.883L9.43734 42.1511L8.43121 42.4075C8.51946 42.5354 8.58852 42.6356 8.66142 42.7413C8.77655 42.8536 8.65017 42.9902 8.30002 43.1321C8.08871 43.2096 7.90477 43.287 7.74992 43.3638C7.12096 43.671 6.93884 43.9612 7.22396 44.2021C7.77029 44.5485 8.53108 44.8672 9.4975 45.1545C10.5184 45.4341 11.077 45.7867 11.9181 46.0913C12.347 46.23 12.868 46.3543 13.4756 46.463C14.6281 46.7046 15.8907 46.9345 17.047 47.1817C18.2033 47.4289 19.5088 47.6064 20.7929 47.8102C22.7048 48.052 24.7714 48.2608 26.9812 48.4355C28.3486 48.5885 29.7528 48.7377 31.0176 48.9136C32.5116 49.1119 34.2666 49.2543 36.2389 49.3373C37.9809 49.4366 39.5374 49.5834 40.8784 49.7751C41.0191 49.7958 41.1301 49.8222 41.2084 49.8534C41.4498 50.0488 42.1266 50.1865 43.1351 50.2455C43.0738 50.3028 42.9955 50.3609 42.9004 50.4198C42.7604 50.49 42.7312 50.5557 42.8168 50.6083C42.9023 50.661 43.0985 50.6982 43.38 50.7151C44.1867 50.7635 44.8572 50.8457 45.3615 50.9581C45.5468 50.9863 45.6616 51.0273 45.6964 51.0777C45.7311 51.1281 45.6847 51.1863 45.561 51.2474C45.4515 51.3103 45.4434 51.3681 45.5379 51.4134C45.6325 51.4587 45.8252 51.4894 46.0912 51.5015C46.774 51.561 47.5051 51.6089 48.2799 51.6448C49.9285 51.724 51.846 51.7231 53.9168 51.642C54.1372 51.6186 54.3593 51.6546 54.6164 51.6273C56.0808 51.5364 57.4408 51.5224 58.5317 51.5868C59.8109 51.6119 61.1482 51.6069 62.497 51.6186C64.4456 51.6107 66.2432 51.6585 67.8395 51.7606C69.6642 51.662 70.6895 51.8335 72.2297 51.8368C73.6516 51.8544 74.9993 51.8967 76.2601 51.9632C78.2926 52.0514 80.3174 52.1286 82.3208 52.2318C84.2002 52.2811 85.9307 52.3752 87.4829 52.5125C88.0778 52.5746 89.1546 52.4779 89.5597 52.608C89.9649 52.738 90.7824 52.7227 91.4431 52.7658L93.5277 52.8724C93.8862 52.8977 94.2804 52.9138 94.7042 52.9204C96.6424 52.9291 97.9846 53.1027 99.7835 53.1382L99.9673 53.1186C103.161 53.3768 106.817 53.5185 110.825 53.5395C113.167 53.6187 115.728 53.6149 118.213 53.6729C118.805 53.789 120.205 53.646 120.948 53.752C121.692 53.858 122.906 53.7885 123.864 53.8059C124.823 53.8234 125.76 53.867 126.784 53.8654C127.673 53.8659 128.424 53.9133 128.969 54.0031C130.211 54.1517 131.726 54.2391 133.445 54.2613C135.719 54.2999 137.87 54.3875 140.183 54.3682C140.15 54.4765 140.292 54.5686 140.594 54.6351C140.896 54.7016 141.348 54.7401 141.903 54.7465C144.376 54.7879 146.619 54.8955 149.125 54.9273L149.796 54.9276L157.291 54.9898C159.311 55.0018 161.257 55.0216 163.317 55.0353C164.088 54.9532 164.107 55.0945 164.64 55.0676C164.789 54.998 164.965 54.9673 165.228 55.005L165.286 55.0885L173.84 55.1992C177.189 55.2801 180.712 55.3044 184.379 55.2718C185.249 55.28 186.061 55.3076 186.802 55.3543C187.489 55.3714 188.205 55.3789 188.947 55.3769C189.95 55.3558 190.929 55.3452 191.882 55.3451C194.389 55.3769 197.019 55.3598 199.763 55.3364C202.507 55.3131 204.586 55.3545 207.029 55.3514C208.683 55.3485 210.329 55.3345 212.042 55.3015C212.859 55.2862 213.867 55.2028 214.713 55.1725C215.56 55.1421 215.836 55.1425 215.948 55.1903C216.316 55.3243 217.242 55.2377 217.983 55.2246C219.426 55.2023 219.631 55.1566 220.023 54.8103L218.252 54.7003C217.818 54.6647 217.272 54.6585 216.666 54.6821C216.061 54.7058 215.417 54.7585 214.796 54.8352C214.552 54.8681 214.296 54.8941 214.044 54.9116C213.792 54.9292 213.549 54.938 213.329 54.9376C211.541 54.9188 209.779 54.8795 208.061 54.8473L207.81 54.8263L207.794 54.5174C208.022 54.4871 208.257 54.462 208.492 54.4431L217.108 54.2427C219.085 54.1935 221.138 54.0825 223.079 54.0372C225.019 53.9919 226.065 53.9643 227.57 53.9175C228.206 53.8908 228.853 53.8558 229.509 53.8126C229.471 53.7829 229.449 53.7513 229.444 53.7181C229.409 53.668 229.363 53.6012 229.642 53.5477C229.946 53.4721 230.352 53.4076 230.779 53.3669C231.18 53.3401 231.569 53.3249 231.931 53.322C233.678 53.2961 235.674 53.1329 237.493 52.8673L238.128 53.0446C240.859 52.945 243.63 52.8471 246.483 52.7525C247.054 52.7267 247.654 52.6772 248.237 52.6076C248.861 52.5412 249.436 52.4024 250.093 52.3264C250.743 52.2718 251.388 52.2292 252.017 52.1993C251.846 52.1537 251.622 52.1173 251.35 52.0911C251.083 52.0819 250.889 52.0534 250.795 52.0097C250.701 51.966 250.712 51.9094 250.828 51.8481C251.031 51.7429 251.121 51.6438 250.678 51.6311C250.269 51.6071 249.977 51.5552 249.835 51.4814C249.694 51.4076 249.709 51.315 249.879 51.2146C249.953 51.1559 250.005 51.0985 250.036 51.0426L250.22 51.023C250.825 50.8152 252.035 50.7402 252.904 50.5701C253.314 50.5208 253.738 50.4924 254.11 50.4895C255.071 50.4529 256.006 50.437 257 50.391C257.474 50.3698 257.971 50.3312 258.459 50.2774C259.157 50.2031 259.231 50.1953 259.636 49.9252C259.007 49.93 258.508 49.8896 258.224 49.811C257.94 49.7324 257.888 49.6205 258.077 49.494C258.596 49.2178 259.144 48.9265 261.493 48.7302C260.727 48.7206 259.99 48.7013 259.285 48.6727C259.08 48.6665 258.926 48.6462 258.845 48.6145C258.763 48.5828 258.758 48.5412 258.829 48.4953C258.9 48.4494 259.045 48.4014 259.243 48.3577C259.442 48.3139 259.685 48.2766 259.94 48.2506C261.18 48.0943 262.473 47.9897 263.675 47.9486C264.688 47.9304 265.602 47.9406 266.785 47.9401L268.181 47.7916C268.158 47.7582 268.363 47.7125 268.31 47.6941C267.956 47.5229 267.564 47.3555 267.161 47.1714C267.805 47.0721 268.363 46.9521 268.77 46.8253C269.178 46.6984 269.419 46.5699 269.467 46.4543C269.501 46.4195 269.492 46.3877 269.44 46.3613C269.388 46.3348 269.293 46.3144 269.164 46.3014C268.796 46.279 268.513 46.2364 268.335 46.1766C268.157 46.1169 268.089 46.0416 268.138 45.9568L269.223 45.6441C272.492 45.4211 275.702 45.2617 278.793 45.169L281.584 45.0989C281.921 45.0153 281.816 44.9786 281.5 44.9765C281.183 44.9744 280.292 44.9976 279.669 45.0101C279.132 45.0265 278.655 45.0157 278.284 44.9788C277.913 44.9419 277.661 44.8801 277.552 44.7994L278.49 44.4429C278.444 44.3761 278.378 44.2815 277.87 44.2879C277.523 44.2801 277.267 44.2465 277.144 44.1925C277.021 44.1384 277.037 44.067 277.191 43.9898C277.215 43.934 277.18 43.8832 277.088 43.8396C276.336 43.836 275.588 43.838 274.906 43.821C274.588 43.8154 274.32 43.7947 274.12 43.7604C273.919 43.7261 273.791 43.679 273.744 43.6222C273.719 43.5669 273.779 43.5038 273.919 43.4381C274.058 43.3724 274.274 43.3059 274.548 43.244C275.617 43.1675 276.594 43.1665 277.267 43.2413C277.506 43.2999 277.891 43.3319 278.371 43.3331C278.85 43.3343 279.402 43.3047 279.953 43.248C280.583 43.1828 281.213 43.1541 281.728 43.1671C282.243 43.1802 282.61 43.2341 282.762 43.3193C283.41 43.2862 283.984 43.2609 284.55 43.2245C285.218 43.1786 285.85 43.1651 286.376 43.1854C287.219 43.1998 288.127 43.1914 289.08 43.1604C291.826 43.0831 294.577 43.0113 297.236 42.9791C297.939 42.9699 298.548 42.9947 299.244 42.9744C299.94 42.9541 300.49 43.009 301.36 42.8985C301.526 42.8813 301.693 42.8702 301.847 42.8662C302.002 42.8622 302.14 42.8653 302.251 42.8753C303.779 42.9627 305.571 42.975 307.521 42.9116C310.191 42.8961 312.961 42.8521 315.635 42.8422C316.42 42.8507 317.161 42.8737 317.852 42.9109C318.377 42.9333 318.927 42.9485 319.5 42.9564C319.938 42.9635 320.358 42.9427 320.284 43.064C320.21 43.1854 320.867 43.1095 321.246 43.087C322.548 43.0282 323.878 42.9486 325.222 42.849C326.547 42.7407 327.844 42.6778 329.038 42.6638C329.9 42.6557 330.788 42.6865 331.897 42.5208C331.854 42.4596 331.812 42.3984 331.571 42.3345C332.475 42.1586 333.506 42.0074 334.579 41.8931C335.652 41.7789 336.737 41.705 337.743 41.6776L339.13 41.3448C339.471 41.3057 339.82 41.2773 340.155 41.2612C340.489 41.245 340.803 41.2416 341.076 41.2511C341.288 41.2559 341.545 41.2435 341.802 41.2162C342.058 41.189 342.296 41.1486 342.472 41.1025C342.736 41.0439 343.057 40.9934 343.397 40.9572C343.737 40.921 344.08 40.9008 344.383 40.8992C345.336 40.863 346.353 40.7794 347.331 40.6571C347.584 40.5853 347.743 40.5112 347.788 40.4438C347.833 40.3765 347.761 40.3188 347.582 40.278C347.293 40.2059 347.131 40.114 347.105 40.0079C347.08 39.9018 347.191 39.7838 347.432 39.6609C347.556 39.5854 347.597 39.514 347.554 39.4509C347.51 39.3878 347.383 39.3343 347.179 39.2937C346.419 39.1059 346.622 39.0006 347.866 38.689C348.068 38.6371 348.312 38.5885 348.582 38.5465C348.851 38.5044 349.141 38.4697 349.433 38.4447C350.117 38.3939 350.792 38.3561 351.445 38.332C351.812 38.2929 352.189 38.3245 352.612 38.3093C354.729 38.2333 355.039 38.1108 355.724 37.8467L356.224 37.6562C357.15 37.5019 358.163 37.3737 359.19 37.2809C360.217 37.1881 361.232 37.133 362.163 37.1196C362.532 37.1186 362.958 37.0922 363.373 37.0446C364.724 36.8988 366.093 36.7979 367.388 36.7486C368.195 36.7208 369.065 36.649 369.893 36.5418C370.722 36.4345 371.473 36.2964 372.058 36.144C372.583 36.0068 373.27 35.8835 374.023 35.7916C374.905 35.6977 374.986 35.5875 374.494 35.5025C374.002 35.4176 373.177 35.3083 372.445 35.219C372.19 35.1886 372.033 35.1393 371.989 35.0764C371.946 35.0135 372.019 34.9396 372.2 34.8629C372.316 34.7316 372.336 34.6071 372.259 34.4922C372.219 34.4445 372.247 34.3898 372.342 34.3318C372.437 34.2738 372.597 34.2138 372.812 34.1559C373.026 34.098 373.289 34.0436 373.584 33.9962C373.878 33.9489 374.198 33.9097 374.52 33.8814C375.879 33.7368 377.201 33.596 378.587 33.4903C379.168 33.4404 379.749 33.3787 380.314 33.3065C381.472 33.128 382.71 32.9799 383.957 32.871C384.549 32.8223 385.128 32.7371 385.568 32.6338C386.956 32.3557 388.236 32.0633 389.383 31.7619C389.66 31.6685 390.021 31.5773 390.446 31.4941C390.87 31.4109 391.348 31.3375 391.849 31.2785C392.254 31.2355 392.582 31.1407 392.894 31.0777C393.12 30.9318 393.144 30.7968 392.964 30.6854C392.784 30.5741 392.405 30.4899 391.863 30.4409C391.35 30.3821 390.869 30.3139 390.425 30.2417C389.889 30.1833 389.253 30.1483 388.539 30.1378C387.694 30.1065 387.068 30.017 386.745 29.8809C389.059 29.6346 391.26 29.2809 393.289 29.3635L394.83 29.1398C394.769 29.0507 394.715 28.9729 394.665 28.9005C394.299 28.7689 394.184 28.6028 394.332 28.4165C394.453 28.3263 394.442 28.2443 394.3 28.1787C394.158 28.1131 393.889 28.0662 393.522 28.0428C391.345 27.8027 388.828 27.6407 386.787 27.3682C386.147 27.3171 385.398 27.2939 384.571 27.2995C383.771 27.2832 383.804 27.1602 384.725 27.0084C385.241 26.9291 385.768 26.8532 386.303 26.7807C388.66 26.7687 389.621 27.1323 392.311 27.031L393.558 26.5519C393.896 26.5445 394.223 26.5416 394.538 26.5432L399.049 26.7379C399.425 26.7476 399.718 26.7809 399.894 26.834C400.07 26.887 400.122 26.9577 400.045 27.038C400.015 27.1362 400.077 27.2263 400.229 27.305C400.328 27.3602 400.265 27.4334 400.054 27.5088C399.58 27.6787 400.189 27.7035 400.573 27.7462C400.671 27.7504 400.784 27.75 400.906 27.7449C401.028 27.7399 401.156 27.7304 401.282 27.7169C401.409 27.7035 401.531 27.6863 401.643 27.6665C401.754 27.6467 401.853 27.6246 401.932 27.6016C402.609 27.4399 403.201 27.2694 403.867 27.091C403.395 26.9204 403.951 26.6402 403.213 26.4858C403.131 26.455 403.098 26.4174 403.116 26.3754C403.135 26.3333 403.204 26.2878 403.321 26.2415C403.621 26.1219 403.764 26.0053 403.735 25.9035C403.707 25.8017 403.507 25.7183 403.157 25.6616L403.115 25.6004C404.038 25.3947 403.794 25.2117 404.156 24.994L405.044 24.8517C407.252 24.5092 407.256 24.5147 409.158 24.5273C409.541 24.397 409.054 24.3771 408.689 24.3623L405.63 24.216C403.631 24.1183 401.573 24.0506 399.339 24.0137C397.106 23.9767 394.615 23.8536 392.307 23.7649C392.19 23.758 392.101 23.7444 392.046 23.7253C391.992 23.7062 391.974 23.682 391.994 23.6548C392.086 23.6255 392.206 23.5971 392.346 23.5719C392.485 23.5468 392.641 23.5253 392.801 23.5093C393.535 23.4311 394.289 23.3807 395.072 23.3153L396.532 23.2017L396.981 23.0524C397.273 22.9616 397.473 22.8507 397.862 22.7855C398.182 22.7368 398.53 22.6998 398.869 22.6785C399.208 22.6571 399.525 22.6521 399.789 22.664C400.519 22.6937 401.18 22.7369 401.877 22.7761C402.575 22.8153 402.959 22.858 403.564 22.8773C404.792 22.886 405.98 22.9092 407.121 22.9466C408.082 23.035 408.971 23.1399 409.782 23.2605C410.288 23.3081 410.762 23.3653 411.626 23.3032C412.036 23.2468 412.389 23.1729 412.624 23.0943C412.858 23.0158 412.959 22.9378 412.907 22.8741C412.861 22.8243 412.73 22.7848 412.526 22.7595C412.322 22.7341 412.052 22.7238 411.743 22.7294C410.875 22.7202 410.073 22.6893 409.353 22.6374C408.35 22.5433 407.129 22.5027 405.761 22.518C405.297 22.5316 404.986 22.481 404.58 22.4645C404.175 22.448 403.831 22.4069 403.379 22.4372C401.973 22.5151 401.299 22.3957 400.457 22.3181C400.172 22.2837 399.996 22.2281 399.947 22.1574C399.898 22.0868 399.979 22.0037 400.181 21.9175C400.57 21.7458 401.045 21.5731 401.6 21.4022C401.886 21.3182 402.251 21.2384 402.669 21.1691C403.086 21.0998 403.544 21.0429 404.006 21.0028C404.283 20.8976 404.43 20.7942 404.435 20.7019C404.441 20.6096 404.303 20.5313 404.036 20.4741C403.354 20.3436 402.75 20.2108 401.223 20.2838C400.505 20.3116 399.83 20.317 399.223 20.2996C397.878 20.2758 396.326 20.3279 394.714 20.4511C394.297 20.4826 393.887 20.5041 393.496 20.515C390.709 20.5907 388.054 20.6284 385.391 20.6551C383.98 20.6679 382.558 20.664 381.085 20.7013C377.631 20.7822 374.487 20.7406 371.154 20.767C369.408 20.7806 367.845 20.7261 366.548 20.6063C366.295 20.5662 366.078 20.5193 365.899 20.4663C366.759 20.3272 367.703 20.2171 368.642 20.1465C369.581 20.0758 370.482 20.0471 371.26 20.063C371.687 20.1019 372.24 20.109 372.856 20.0835C373.472 20.058 374.127 20.0009 374.749 19.9186L372.942 19.872C371.744 19.8502 370.517 19.8435 369.352 19.8122C367.501 19.7584 365.785 19.6722 363.868 19.6374C362.321 19.6053 360.936 19.5234 359.757 19.3941C358.906 19.2999 357.933 19.233 356.86 19.1949C356.096 19.1747 356.096 19.1747 355.609 18.9817C355.996 18.8569 356.496 18.8395 356.968 18.8371C359.795 18.7585 362.485 18.7448 364.984 18.7961C366.245 18.8006 367.363 18.8535 368.286 18.9522C368.511 18.9939 369.089 18.9742 369.553 18.9607C371.007 18.9401 372.397 18.946 373.706 18.9785C375.515 19.0326 377.531 19.0198 379.674 18.9405C380.08 18.8435 379.612 18.8515 379.589 18.8181C377.929 18.7559 376.303 18.6842 374.61 18.6314C374.147 18.6126 373.653 18.6033 373.132 18.6036C371.187 18.6363 369.567 18.5457 368.497 18.3445C368.444 18.2666 367.74 18.2758 367.429 18.2252C367.276 18.1815 367.174 18.13 367.127 18.0723C367.58 17.9285 368.092 17.9278 368.486 17.9276C369.63 17.9437 370.73 17.9741 371.782 18.0187C372.76 18.0612 373.842 18.0726 375 18.0525C375.854 18.0332 376.584 18.063 377.446 18.0549C377.914 18.0378 378.397 18.0103 378.888 17.9731C378.342 17.8729 377.599 17.8112 376.713 17.7925C376.041 17.7327 375.2 17.7146 375.093 17.5589C375.41 17.4474 375.764 17.4456 376.048 17.4572C376.639 17.4568 377.21 17.4638 377.758 17.4782C378.92 17.5099 380.178 17.5103 381.505 17.4795C382.204 17.468 382.867 17.4715 383.484 17.4899C384.881 17.5144 386.22 17.5689 387.499 17.594C390.119 17.6197 392.509 17.7117 395.027 17.7602C395.587 17.7723 396.09 17.8143 396.828 17.7417C397.567 17.6691 397.599 17.6596 397.687 17.6145C397.893 17.5392 397.956 17.4663 397.862 17.4107C397.715 17.3589 397.43 17.33 397.056 17.3292C394.806 17.2467 392.671 17.1309 390.665 16.9823C389.783 16.9525 389.01 16.8918 388.373 16.8023C387.867 16.7407 387.268 16.6999 386.593 16.6811C385.612 16.6366 384.589 16.6039 383.529 16.5833C383.036 16.5722 382.616 16.5392 382.295 16.4862C381.974 16.4332 381.758 16.3612 381.66 16.2746L382.96 15.987C383.164 15.9736 383.367 15.962 383.567 15.9522L394.357 16.1594L395.425 16.1651C396.596 16.148 396.883 16.1056 397.994 15.7723C395.458 15.6939 393.465 15.4654 392.213 15.1096C392.514 15.0713 392.823 15.0385 393.131 15.0118C395.158 14.9277 397.073 14.9053 398.804 14.9456C399.832 14.9496 400.889 14.9387 401.95 14.9332C401.639 14.7692 400.451 14.8181 399.676 14.7811C397.825 14.7232 396.188 14.6037 394.818 14.4263C394.345 14.3571 393.754 14.3129 393.071 14.2956C392.388 14.2897 391.818 14.2478 391.409 14.1737C391.001 14.0996 390.767 13.9954 390.728 13.8703C390.663 13.757 390.524 13.6517 390.314 13.556C390.687 13.4202 391.279 13.2902 391.98 13.1904C392.681 13.0905 393.441 13.0276 394.119 13.0136C395.567 12.9577 397.068 12.8662 398.585 12.7414C399.34 12.6784 400.081 12.6423 400.759 12.6353C401.357 12.63 402.037 12.5845 402.695 12.5059C403.352 12.4272 403.952 12.3198 404.402 12.1998C405.01 12.0515 405.577 11.9016 406.144 11.7517C406.711 11.6018 407.369 11.4123 408.03 11.2284C408.614 11.1996 409.182 11.1811 409.727 11.1732C410.152 11.1799 410.646 11.1599 411.154 11.1154C411.661 11.0709 412.16 11.0039 412.591 10.9222C412.338 10.8416 412.052 10.7705 411.751 10.6771C412.164 10.5538 412.464 10.428 412.632 10.3075C412.799 10.187 412.832 10.0742 412.727 9.97606C412.665 9.88704 413.114 9.73772 413.27 9.61967C413.469 9.51792 413.507 9.42295 413.377 9.34723C413.248 9.27151 412.957 9.21857 412.543 9.19536C412.03 9.1525 411.612 9.08797 411.307 9.0044C411.207 8.98271 411.155 8.953 411.158 8.91799C411.161 8.88298 411.218 8.8438 411.324 8.80401C411.43 8.76422 411.581 8.7251 411.764 8.69023C411.948 8.65536 412.157 8.62586 412.372 8.60441C413.033 8.54361 413.689 8.5042 414.303 8.48845C415.361 8.45947 416.374 8.44126 417.341 8.43383C418.412 8.42265 419.602 8.35363 420.792 8.23379C421.857 8.1204 422.812 8.01873 423.333 7.80205C423.854 7.58536 424.687 7.59227 425.328 7.43452C424.968 7.29233 424.328 7.19353 423.474 7.1481C422.915 7.13188 422.448 7.08932 422.103 7.02314C421.759 6.95695 421.544 6.86861 421.474 6.76379L423.418 6.32393C424.971 6.11686 425.83 6.27624 427.508 6.19321L425.779 6.03084C425.744 6.01479 425.731 5.99594 425.741 5.9752C425.909 5.6468 426.176 5.57657 427.943 5.39445L428.935 5.28888L430.504 5.1636C430.756 5.0963 430.93 5.02612 431.009 4.96006C431.088 4.89401 431.069 4.83442 430.955 4.78723C430.725 4.70787 430.655 4.60647 430.751 4.49236C430.904 4.41676 430.916 4.34708 430.787 4.29539C430.657 4.2437 430.395 4.21327 430.043 4.20938C429.763 4.20337 429.742 4.116 429.59 4.06653C429.439 3.99835 429.179 3.94603 428.83 3.91313C428.481 3.88024 428.05 3.86753 427.566 3.87589C426.14 3.88271 424.8 3.85712 423.57 3.79956L423.79 3.7761C422.509 3.82663 421.31 3.83276 420.254 3.79418C419.195 3.74563 417.837 3.77678 416.712 3.74717C415.796 3.75396 415.1 3.68676 414.769 3.55984C414.449 3.43864 413.285 3.46693 412.394 3.4901C411.867 3.50508 411.356 3.51143 410.869 3.50907C410.216 3.48164 409.399 3.5075 408.554 3.58233C408.301 3.60533 408.051 3.6175 407.829 3.61768C405.682 3.64913 403.539 3.68615 401.421 3.70256C400.932 3.69311 400.359 3.71476 399.768 3.76498C399.52 3.78679 399.279 3.79582 399.076 3.79086C395.729 3.74099 391.953 3.86824 388.672 3.79942C388.274 3.78317 387.834 3.77979 387.364 3.78937C386.307 3.8298 385.389 3.80378 384.749 3.71527C384.404 3.66819 383.962 3.64225 383.451 3.6391C382.939 3.63594 382.37 3.65565 381.779 3.69696C380.796 3.75167 379.888 3.75759 379.149 3.71413C377.71 3.67398 376.196 3.65747 374.62 3.66473C374.137 3.67176 373.712 3.65615 373.379 3.61913C373.046 3.58211 372.813 3.52465 372.698 3.45123C373.085 3.32642 373.509 3.31123 373.91 3.3222C375.468 3.29376 377.022 3.25976 378.551 3.24635C379.919 3.20807 381.232 3.19636 382.47 3.21141C383.085 3.22839 383.852 3.18968 384.604 3.10372C385.526 2.99486 386.475 2.94078 387.26 2.95241C387.842 2.9553 388.456 2.94593 389.094 2.92442C389.502 2.89849 389.92 2.85395 390.306 2.79539C390.459 2.76996 390.626 2.74857 390.795 2.7326C390.965 2.71664 391.133 2.70645 391.29 2.70267C391.447 2.69889 391.589 2.7016 391.707 2.71065C391.824 2.7197 391.915 2.73489 391.974 2.75523C392.564 2.92529 393.885 2.8385 395.015 2.81969C396.71 2.53186 397.971 2.70222 399.554 2.53965C399.679 2.52888 399.803 2.52235 399.917 2.52048C400.031 2.51862 400.133 2.52146 400.217 2.52881C403.281 2.62666 406.853 2.54512 410.07 2.57891C410.425 2.58384 410.837 2.56691 411.259 2.53002C414.017 2.28588 416.669 2.21656 418.696 2.33564C418.943 2.34637 419.223 2.34683 419.525 2.33699C420.911 2.23996 422.236 2.20127 423.39 2.22416C425.199 2.21677 426.938 2.22277 428.776 2.20033C430.043 2.16842 431.155 2.20252 431.999 2.29922C432.026 2.33817 432.589 2.2962 433.02 2.29214C433.267 2.1941 433.482 2.10554 433.738 2.01862C433.966 1.91109 434.308 1.80228 434.741 1.69956C435.174 1.59685 435.687 1.50263 436.245 1.42329C437.2 1.32162 437.296 1.1741 436.627 1.11983C434.905 0.940262 432.739 0.866768 430.288 0.904739C428.24 0.907774 426.155 0.914726 424.077 0.932797C422.865 0.948302 421.588 0.982739 420.409 0.988769C420.011 1.00202 419.603 1.02154 419.188 1.04713C418.678 1.08424 418.183 1.10445 417.73 1.1067C416.275 1.07545 414.651 1.10267 412.935 1.18706C412.307 1.20547 411.704 1.21167 411.134 1.20558C409.787 1.18267 408.327 1.19953 406.792 1.25571C405.838 1.28738 404.913 1.30395 404.026 1.30522C403.713 1.30868 403.458 1.28207 403.157 1.30222C400.502 1.51308 398.623 1.36078 396.234 1.44186C395.073 1.46446 393.964 1.46453 392.922 1.44205C390.888 1.44314 388.798 1.46625 386.66 1.51131C383.833 1.58532 381.212 1.55964 378.513 1.5902C377.98 1.59662 377.465 1.59553 376.972 1.58692C374.577 1.53004 371.974 1.5421 369.229 1.62281C368.606 1.63447 368.046 1.62021 367.584 1.58094C367.123 1.54167 366.77 1.47823 366.548 1.39458C366.454 1.33717 366.515 1.26261 366.719 1.18527C367.058 1.0865 367.44 0.989735 367.861 0.896554L383.142 0.583878C383.784 0.567549 384.41 0.558761 385.017 0.557544C386.801 0.554827 388.641 0.530502 390.526 0.484692C392.389 0.441663 394.169 0.449302 395.974 0.436345C396.506 0.432006 397.052 0.421766 397.609 0.405657C401.378 0.278154 405.053 0.200276 408.608 0.172583C410.104 0.168655 411.72 0.110139 413.244 0.0911721C414.769 0.0722041 416.854 0.0652604 418.663 0.0578685L424.263 0.0590029C425.365 0.0552298 426.437 0.0664888 427.506 0.0721891C428.803 -0.334573 429.249 -0.429915 430.98 -0.608123C431.572 -0.67386 432.174 -0.713089 432.716 -0.721218C434.434 -0.689063 436.589 -0.822918 438.218 -0.805196C439.201 -0.813937 440.035 -0.76875 440.635 -0.674259C441.155 -0.600102 441.751 -0.541423 442.412 -0.49911C444.222 -0.847086 444.382 -1.07308 443.02 -1.16103C442.651 -1.18148 442.143 -1.17515 441.876 -1.21846C441.723 -1.24483 441.514 -1.25991 441.266 -1.26252C441.018 -1.26512 440.737 -1.25519 440.446 -1.23348C439.528 -1.17653 438.666 -1.16314 437.949 -1.19465C437.274 -1.23634 436.447 -1.23468 435.547 -1.18981C434.886 -1.11943 434.305 -1.21881 433.733 -1.24752C433.161 -1.27623 432.692 -1.32781 431.799 -1.25066C431.635 -1.2353 431.473 -1.22607 431.324 -1.2237C431.175 -1.22133 431.044 -1.22586 430.941 -1.23696C429.981 -1.28665 428.837 -1.28143 427.599 -1.22173C425.702 -1.16298 423.921 -1.16078 422.32 -1.21519C421.361 -1.26281 420.544 -1.34725 419.9 -1.46522C419.724 -1.50468 419.464 -1.52834 419.143 -1.53393C417.531 -1.50932 415.782 -1.41668 414.007 -1.26199C413.338 -1.20001 412.67 -1.15099 412.017 -1.11596C410.676 -1.03815 409.379 -0.994545 408.164 -0.986443C406.398 -0.985159 404.56 -0.95522 402.665 -0.896898C401.496 -0.864426 400.369 -0.852439 399.299 -0.861073C398.198 -0.865142 397.023 -0.840371 395.801 -0.787336C394.585 -0.744119 393.513 -0.76902 392.715 -0.859026C392.452 -0.907527 392.24 -0.965123 392.084 -1.03074C393.864 -1.24424 395.706 -1.35274 397.237 -1.3344C397.819 -1.34854 398.302 -1.33427 398.915 -1.41743L398.934 -1.38961C399.056 -1.37156 399.24 -1.3673 399.451 -1.37765C399.662 -1.38799 399.886 -1.41222 400.079 -1.44571C400.006 -1.55142 399.937 -1.65156 399.887 -1.72389C398.72 -1.71113 397.587 -1.71216 396.493 -1.72699C395.572 -1.74833 394.32 -1.56141 393.523 -1.63177C391.967 -1.54379 390.976 -1.66527 389.581 -1.63022C388.185 -1.59516 386.648 -1.47936 385.253 -1.4443C384.035 -1.42507 382.853 -1.42089 381.713 -1.43178C381.319 -1.44707 380.865 -1.44348 380.379 -1.42124C379.696 -1.37939 379.06 -1.37237 378.545 -1.40101C378.03 -1.42964 377.657 -1.49277 377.468 -1.58315C377.646 -1.66781 377.886 -1.77697 378.163 -1.89005C377.654 -1.98297 376.88 -2.02209 375.957 -2.0016L374.652 -2.00609C374.307 -2.00364 374.042 -2.02876 373.914 -2.07625C373.786 -2.12374 373.804 -2.18997 373.964 -2.26125C376.437 -2.62006 376.528 -2.65962 378.344 -2.42883L380.754 -2.53607L380.713 -2.53772ZM348.112 -1.55208L348.295 -1.57162L348.112 -1.55208ZM47.7392 36.6232L47.7814 36.6844L47.7353 36.6177L47.3313 36.6607L47.3044 36.6217L47.7392 36.6232ZM106.41 9.79924C106.981 9.73247 107.558 9.67109 108.137 9.61547C108.288 9.60684 108.43 9.60489 108.55 9.60979C108.67 9.61468 108.765 9.62627 108.827 9.64357C108.873 9.71033 108.55 9.75666 108.256 9.78794C107.885 9.83004 107.507 9.85679 107.159 9.86544C106.811 9.87408 106.507 9.86432 106.279 9.83714L105.946 9.81278L106.41 9.79924ZM400.601 26.0711C400.225 26.0824 399.868 26.0842 399.54 26.0766C398.083 26.0226 396.688 25.9441 395.195 25.8941C393.31 25.767 391.145 25.7153 388.78 25.7408C387.856 25.7532 387.075 25.7121 386.529 25.622C386.202 25.5737 385.78 25.5455 385.289 25.539L379.036 25.3924C378.65 25.3619 378.315 25.3192 378.041 25.2653C378.593 25.2067 378.96 25.1676 379.18 25.1441C379.638 25.1375 380.031 25.1554 380.32 25.196C380.631 25.2647 381.157 25.2919 381.792 25.2722C382.434 25.2558 383.06 25.2471 383.667 25.2458C384.813 25.2493 385.966 25.2638 387.116 25.2729C387.564 25.4641 388.884 25.3773 390.014 25.3585L390.888 25.3671C393.743 25.4662 396.47 25.6026 399.056 25.7757C399.556 25.8049 399.987 25.8516 400.335 25.9143C400.466 25.9632 400.508 26.0241 400.458 26.0923L400.641 26.0728L400.601 26.0711ZM273.108 44.3587C272.416 44.3718 271.694 44.3985 270.955 44.4386C270.385 44.4796 269.83 44.5044 269.31 44.5122C266.398 44.5551 263.364 44.6541 260.247 44.8079C259.84 44.8312 259.448 44.8426 259.088 44.8418L256.537 44.8027C255.733 44.7808 255.718 44.7585 256.303 44.4633C256.789 44.406 257.28 44.3538 257.773 44.3069C258.066 44.2756 258.544 44.2248 258.656 44.2726C259.337 44.4031 260.58 44.3186 261.626 44.2909C264.652 44.2196 267.774 44.1143 270.83 44.028C271.476 44.0069 272.101 43.9962 272.7 43.9961C273.072 43.9916 273.411 44 273.703 44.0207C273.789 44.0228 273.86 44.029 273.913 44.0388C273.966 44.0487 273.999 44.0619 274.009 44.0777C274.02 44.0935 274.009 44.1114 273.976 44.1304C273.943 44.1494 273.889 44.1689 273.818 44.1876C273.568 44.2533 273.279 44.3163 272.961 44.3744L273.108 44.3587ZM250.937 1.51701L247.955 1.48202C247.598 1.47826 247.295 1.43887 246.912 1.45572C244.87 1.50911 242.98 1.49424 241.322 1.41174C240.757 1.37807 240.096 1.37134 239.376 1.39191C237.17 1.45288 235.089 1.45539 233.19 1.39937C231.962 1.38812 230.813 1.35036 229.76 1.28664C229.679 1.27185 229.629 1.25177 229.612 1.22776C229.596 1.20376 229.613 1.1764 229.664 1.14755C229.678 1.12932 229.714 1.10972 229.77 1.09008C229.827 1.07045 229.902 1.05124 229.991 1.03381C230.08 1.01637 230.181 1.00111 230.287 0.989075C230.392 0.977039 230.5 0.968507 230.603 0.964079C231.933 0.877828 233.196 0.847779 234.288 0.876375C235.301 0.910589 236.391 0.9206 237.542 0.906252C238.644 0.902478 239.391 1.01404 240.752 0.928915C241.328 0.900883 241.835 0.910111 242.19 0.955056C242.903 1.02955 243.897 1.03369 244.997 0.966748C245.656 0.932868 246.285 0.918339 246.861 0.923715C248.258 0.948207 249.593 0.997207 250.887 1.04456C251.295 1.05551 251.732 1.05702 252.192 1.04906L258.673 0.956341C260.231 0.927902 261.785 0.893897 263.314 0.880494C264.564 0.851391 265.727 0.860506 266.763 0.907516C267.867 0.956927 269.071 0.976987 270.353 0.967316C272.343 0.994356 274.322 1.0047 276.488 1.00106C277.87 1.0033 279.285 0.996066 280.728 0.973793C281.459 0.945126 282.079 0.968471 282.469 1.03933C282.706 1.09767 283.265 1.05014 283.729 1.03661C286.203 0.906112 288.523 0.875192 290.528 0.945999C290.784 0.957538 291.065 0.961714 291.365 0.958458C293.295 0.956025 295.295 0.940211 297.148 0.940035C297.636 0.945539 298.096 0.960633 298.52 0.985133C298.475 1.0251 298.345 1.06842 298.158 1.10611C297.971 1.14379 297.741 1.17296 297.516 1.18754C295.764 1.2992 294.071 1.35819 292.51 1.36203C289.912 1.34781 287.191 1.37979 284.374 1.45763C282.189 1.53611 280.196 1.51958 278.544 1.40929C277.253 1.32699 275.574 1.35795 273.794 1.49687C273.032 1.56321 272.293 1.58974 271.678 1.57282C271.085 1.55064 270.405 1.55602 269.677 1.58865C268.143 1.65068 266.668 1.67946 265.281 1.67441C263.924 1.65158 262.659 1.58919 261.266 1.57026C259.872 1.55133 257.751 1.56218 256.033 1.53002C254.315 1.49787 252.616 1.49353 250.937 1.51701ZM374.483 -1.73723C374.325 -1.56521 373.768 -1.45813 373.169 -1.41226C371.103 -1.20859 369.06 -1.12191 367.384 -1.16679C366.479 -1.22939 365.272 -1.2053 364 -1.09924C362.519 -0.988985 361.136 -0.970701 360.092 -1.04761C359.837 -1.06104 359.641 -1.08945 359.523 -1.1303C359.5 -1.16368 359.458 -1.22488 359.45 -1.23601C359.559 -1.26423 359.694 -1.29037 359.843 -1.31243C359.992 -1.33449 360.151 -1.35187 360.308 -1.36323L367.152 -1.56015L368.345 -1.60348C370.523 -1.717 372.599 -1.76223 374.483 -1.73723ZM361.021 0.985513C359.953 1.26641 359.949 1.26084 359.402 1.32505C356.762 1.59178 354.124 1.73576 351.802 1.73987C351.286 1.73905 350.847 1.71194 350.525 1.6608C350.359 1.65387 350.253 1.63185 350.231 1.59954C350.208 1.56723 350.271 1.52726 350.406 1.48833L351.255 1.29044C352.798 1.20476 354.318 1.13669 355.807 1.08663C357.541 1.02751 359.077 1.02523 360.874 1.00114L361.021 0.985513ZM273.236 43.1149C272.241 43.5015 272.237 43.4959 270.571 43.5957C269.41 43.6663 268.283 43.7078 267.225 43.7189C265.932 43.7311 264.607 43.7527 263.318 43.7705C263.003 43.7828 262.736 43.7726 262.569 43.7418C262.402 43.711 262.347 43.6619 262.414 43.6039C262.583 43.541 262.848 43.4801 263.165 43.4312C263.482 43.3823 263.833 43.3482 264.16 43.3344L264.864 43.3252C265.718 43.306 266.605 43.2772 267.43 43.273C267.966 43.289 268.586 43.2766 269.243 43.2368C269.899 43.1969 270.575 43.1307 271.215 43.0433L273.236 43.1149ZM355.707 -1.23174C355.441 -1.16479 355.14 -1.10066 354.813 -1.04107C353.545 -0.875899 352.204 -0.782087 351.051 -0.778028C350.506 -0.767796 350.008 -0.804329 349.453 -0.751241C348.458 -0.680301 347.493 -0.642514 346.611 -0.639923C346.611 -0.639923 346.364 -0.655413 346.283 -0.65872L346.114 -0.903516C346.532 -0.960225 346.967 -1.00655 347.4 -1.04037C348.854 -1.1055 350.282 -1.15002 351.706 -1.20011C353.131 -1.25021 353.628 -1.27322 354.559 -1.29473C354.975 -1.2829 355.359 -1.2618 355.707 -1.23174ZM387.183 29.2012L385.281 29.7023C384.666 29.7458 384.091 29.7537 383.644 29.7247C383.197 29.6958 382.902 29.6316 382.805 29.5418C382.648 29.4999 382.632 29.4377 382.761 29.3683C382.89 29.299 383.153 29.2278 383.495 29.1698C383.824 29.1011 384.199 29.0394 384.599 28.9887C384.998 28.938 385.412 28.8994 385.815 28.8751L387.183 29.2012ZM371.346 26.7065C372.59 26.6216 373.78 26.5868 374.825 26.605C375.483 26.6547 376.375 26.6388 377.318 26.5606C379.032 26.4047 380.685 26.3616 381.927 26.4402C381.927 26.4402 381.974 26.507 382.184 26.5264C382.395 26.5458 381.56 26.5929 381.376 26.6124C380.029 26.6602 378.674 26.6969 377.503 26.7141C376.776 26.7134 376.007 26.7291 375.209 26.7612C374.111 26.8106 373.07 26.8266 372.126 26.8086C372.126 26.8086 371.761 26.7937 371.35 26.7121L371.346 26.7065ZM238.481 0.609259C239.075 0.514896 239.72 0.438204 240.366 0.38494C241.012 0.331676 241.643 0.303224 242.212 0.301708C242.648 0.296784 243.001 0.321699 243.214 0.372513C243.428 0.423326 243.49 0.497139 243.392 0.582279C242.951 0.629199 242.363 0.691759 242.032 0.726949C240.886 0.723506 239.909 0.678259 238.481 0.609259ZM127.244 8.56113C127.721 8.48517 128.246 8.42709 128.76 8.39353C129.274 8.35997 129.755 8.35228 130.15 8.37134C130.353 8.3796 130.215 8.46592 130.249 8.51599C130.272 8.52734 130.272 8.54146 130.249 8.55687C130.226 8.57228 130.181 8.58841 130.118 8.60357C130.056 8.61873 129.979 8.63236 129.896 8.64304C129.812 8.65371 129.724 8.66105 129.642 8.66426C129.125 8.69698 128.636 8.70672 128.221 8.69261C127.805 8.6785 127.475 8.64098 127.26 8.58339L127.244 8.56113ZM119.791 9.64703C119.865 9.60221 120.022 9.5555 120.233 9.51544C120.445 9.4754 120.696 9.4447 120.942 9.42899C121.376 9.42688 121.771 9.43931 122.111 9.46581C122.48 9.48626 122.215 9.61603 121.716 9.69303C121.504 9.72393 121.279 9.74804 121.056 9.76343C120.834 9.77882 120.621 9.78507 120.435 9.78169C120.249 9.7783 120.095 9.76537 119.984 9.74393C119.874 9.72249 119.81 9.69312 119.799 9.65816L119.791 9.64703ZM336.359 -0.754974C337.471 -0.91513 338.326 -0.87484 339.268 -0.939209C340.209 -1.00358 340.441 -1.01035 340.315 -0.907349C340.189 -0.804344 339.544 -0.825234 339.139 -0.782224C338.593 -0.725152 338.044 -0.69238 337.553 -0.687567C337.062 -0.682755 336.648 -0.706092 336.359 -0.754974ZM104.649 26.3438C105.238 26.3078 105.815 26.2824 106.371 26.268C106.445 26.2829 106.491 26.3024 106.506 26.3253C106.522 26.3482 106.508 26.3741 106.464 26.4015C106.464 26.4015 106.086 26.4834 105.866 26.5069C105.054 26.5874 105.014 26.4722 104.649 26.3438ZM21.4056 41.2654C21.0069 41.3735 20.8211 41.4471 20.502 41.4989C20.3554 41.517 20.2038 41.53 20.0586 41.5372C19.9134 41.5444 19.7782 41.5455 19.6631 41.5405C19.5228 41.5093 19.49 41.4616 19.571 41.4069C19.571 41.4069 19.9772 41.31 20.1318 41.3054C20.5729 41.2825 21.0005 41.2691 21.4056 41.2654ZM355.286 -1.67066C356.131 -1.76059 356.939 -1.84662 357.524 -1.74167C356.182 -1.62873 356.182 -1.62872 355.286 -1.67066ZM341.601 -0.644072C342.454 -0.836403 342.955 -0.853857 343.364 -0.831758C343.451 -0.826193 343.509 -0.813786 343.528 -0.796424C343.548 -0.779063 343.528 -0.757689 343.472 -0.735532C343.416 -0.713376 343.327 -0.691646 343.218 -0.673629C343.109 -0.65561 342.986 -0.642284 342.868 -0.63567C342.423 -0.630133 341.999 -0.632944 341.601 -0.644072ZM297.689 -0.562743C297.67 -0.590561 297.647 -0.623941 297.868 -0.647402C297.925 -0.659312 297.993 -0.669552 298.064 -0.677102C298.135 -0.684652 298.207 -0.689239 298.272 -0.690407C298.272 -0.690407 298.295 -0.657024 298.31 -0.63477L297.689 -0.562743ZM267.196 45.621L267.687 45.6464L267.467 45.6699L266.885 45.684L267.196 45.621ZM94.4127 9.21296C94.5963 9.19342 94.78 9.17386 94.8069 9.21281C94.8456 9.21884 94.8697 9.22754 94.877 9.23819C94.8843 9.24884 94.8748 9.26111 94.8491 9.27401C94.8491 9.27401 94.5919 9.30138 94.4817 9.31311L94.4127 9.21296ZM123.019 9.52444C123.14 9.52221 123.249 9.52482 123.34 9.53211L123.363 9.56549L122.995 9.6046L123.019 9.52444ZM372.316 17.4781C372.458 17.4579 372.609 17.4419 372.757 17.4312L372.941 17.4117C372.941 17.4117 372.743 17.4685 372.633 17.4802C372.523 17.492 372.434 17.4775 372.316 17.4781Z" fill="#C7BDB2"/>
</g>
</svg>
